<?xml version="1.0" encoding="utf-8"?>
<!-- Generator: Adobe Illustrator 19.1.0, SVG Export Plug-In . SVG Version: 6.00 Build 0)  -->
<svg version="1.1" id="Calque_1" xmlns="http://www.w3.org/2000/svg" xmlns:xlink="http://www.w3.org/1999/xlink" x="0px" y="0px"
	 viewBox="0 0 330.6 321.6" style="enable-background:new 0 0 330.6 321.6;" xml:space="preserve">
<style type="text/css">
	.st0{fill:none;stroke:#1C3660;stroke-width:10;stroke-miterlimit:10;}
	.st1{fill:none;stroke:#1C3660;stroke-width:0.75;stroke-miterlimit:10;}
	.st2{fill:#1B365F;}
</style>
<circle class="st0" cx="170.4" cy="162.7" r="130.4"/>
<line class="st1" x1="77.6" y1="139.2" x2="269.9" y2="139.2"/>
<g>
	<path class="st2" d="M104.8,165.7h9l14.2,37.4h-11.8l-1.2-3.4h-11.3l-1.2,3.4H90.6L104.8,165.7z M106.6,163.6l-6.7-8.7h8.2l4.6,8.7
		H106.6z M111.8,191.5l-2.5-6.6l-2.5,6.6H111.8z"/>
	<path class="st2" d="M169,180c0,2.6-0.4,4.8-1.3,6.6c-0.9,1.8-2.1,3.3-3.7,4.4c-1.5,1.1-3.4,1.9-5.4,2.5c-2.1,0.5-4.3,0.8-6.7,0.8
		v8.9h-11.9v-37.4h11.9c2.4,0,4.6,0.3,6.7,0.8c2.1,0.5,3.9,1.3,5.4,2.5s2.8,2.6,3.7,4.4C168.6,175.2,169,177.4,169,180z
		 M151.9,184.1h0.5c1.6,0,2.7-0.4,3.4-1.1c0.7-0.7,1-1.7,1-3.1c0-1.3-0.3-2.3-1-3.1c-0.7-0.7-1.8-1.1-3.4-1.1h-0.5V184.1z"/>
	<path class="st2" d="M171.8,165.7h12.9c2.4,0,4.6,0.3,6.6,1c2,0.6,3.8,1.6,5.3,2.8s2.7,2.8,3.5,4.6c0.8,1.8,1.3,3.9,1.3,6.2
		c0,1.9-0.3,3.5-0.8,4.8c-0.5,1.3-1.1,2.4-1.7,3.2c-0.7,1-1.6,1.8-2.5,2.5l7,12.3h-14l-5.6-9.5v9.5h-11.9V165.7z M183.7,184.1h0.6
		c1.4,0,2.6-0.3,3.6-1c1-0.6,1.5-1.7,1.5-3.2c0-1.5-0.5-2.6-1.5-3.2c-1-0.6-2.2-1-3.6-1h-0.6V184.1z"/>
	<path class="st2" d="M204.4,165.7h12.7v37.4h-12.7V165.7z"/>
	<path class="st2" d="M228.6,183.8l-9.9-18h13l3.4,6.1l3.4-6.1h13.1l-9.9,18l10.6,19.3h-13l-4.1-7.4l-4.1,7.4h-13L228.6,183.8z"/>
	<path class="st2" d="M110.8,257.1v-37.4h10.4c3.5,0,6.6,0.4,9.4,1.2c2.7,0.8,5.1,2,6.9,3.5c1.9,1.6,3.3,3.5,4.3,5.9
		c1,2.3,1.5,5,1.5,8.1c0,3.1-0.5,5.8-1.5,8.1c-1,2.3-2.4,4.3-4.3,5.9c-1.9,1.6-4.2,2.8-6.9,3.6c-2.7,0.8-5.9,1.2-9.4,1.2H110.8z
		 M122.7,246.5c2.8,0,5-0.7,6.5-2c1.5-1.3,2.3-3.4,2.3-6.1c0-2.7-0.8-4.7-2.3-6c-1.5-1.3-3.7-2-6.5-2V246.5z"/>
	<path class="st2" d="M149.3,219.7h10.6l-6,15.1h-9.5L149.3,219.7z"/>
	<path class="st2" d="M161,238.5c0-2.7,0.5-5.2,1.5-7.6c1-2.4,2.4-4.5,4.2-6.2c1.8-1.8,3.9-3.2,6.2-4.2c2.4-1,4.9-1.5,7.6-1.5
		s5.2,0.5,7.6,1.5c2.4,1,4.5,2.4,6.2,4.2c1.8,1.8,3.2,3.9,4.2,6.2c1,2.4,1.5,4.9,1.5,7.6c0,2.7-0.5,5.2-1.5,7.6
		c-1,2.4-2.4,4.5-4.2,6.2c-1.8,1.8-3.9,3.2-6.2,4.2c-2.4,1-4.9,1.5-7.6,1.5s-5.2-0.5-7.6-1.5c-2.4-1-4.5-2.4-6.2-4.2
		c-1.8-1.8-3.2-3.9-4.2-6.2C161.6,243.7,161,241.1,161,238.5z M172.8,238.5c0,1.1,0.2,2.1,0.6,3.1s1,1.8,1.7,2.5s1.5,1.3,2.5,1.7
		c1,0.4,2,0.6,3.1,0.6c1.1,0,2.1-0.2,3.1-0.6c1-0.4,1.8-1,2.5-1.7s1.3-1.5,1.7-2.5c0.4-1,0.6-2,0.6-3.1s-0.2-2.1-0.6-3.1
		c-0.4-1-1-1.8-1.7-2.5s-1.5-1.3-2.5-1.7c-1-0.4-2-0.6-3.1-0.6c-1.1,0-2.1,0.2-3.1,0.6c-1,0.4-1.8,1-2.5,1.7s-1.3,1.5-1.7,2.5
		C173,236.4,172.8,237.4,172.8,238.5z"/>
	<path class="st2" d="M203.3,219.7h12.9c2.4,0,4.6,0.3,6.6,1s3.8,1.6,5.3,2.8c1.5,1.2,2.7,2.8,3.5,4.6c0.8,1.8,1.3,3.9,1.3,6.2
		c0,1.9-0.3,3.5-0.8,4.8c-0.5,1.3-1.1,2.4-1.7,3.2c-0.7,1-1.6,1.8-2.5,2.5l7,12.3h-14l-5.6-9.5v9.5h-11.9V219.7z M215.3,238.1h0.6
		c1.4,0,2.6-0.3,3.6-1c1-0.6,1.5-1.7,1.5-3.2c0-1.5-0.5-2.6-1.5-3.2c-1-0.6-2.2-1-3.6-1h-0.6V238.1z"/>
</g>
<rect x="25" y="-68.8" style="fill:none;" width="143.8" height="28.6"/>
<g>
	<path d="M106.2,119.9c0-1.1-0.3-2-0.8-2.8s-1.3-1.4-2.4-2s-2.8-1.2-5-1.8s-3.9-1.2-5-1.8s-1.9-1.3-2.4-2.2s-0.8-1.8-0.8-3
		c0-1.9,0.8-3.4,2.4-4.5s3.6-1.7,6.1-1.7c1.6,0,3.1,0.3,4.4,1s2.3,1.5,3,2.7s1.1,2.5,1.1,3.9h-0.9c0-1.9-0.7-3.5-2.1-4.7
		s-3.2-1.9-5.5-1.9c-2.2,0-4.1,0.5-5.5,1.5s-2.1,2.3-2.1,3.8c0,1.5,0.6,2.8,1.8,3.7s3.2,1.8,6,2.5s4.8,1.6,6.1,2.5
		c1.6,1.2,2.5,2.8,2.5,4.9c0,1.3-0.4,2.4-1.1,3.4s-1.8,1.8-3.1,2.3s-2.8,0.8-4.5,0.8c-1.9,0-3.5-0.3-5-0.9s-2.6-1.5-3.3-2.6
		s-1.1-2.5-1.1-4H90c0,2.1,0.8,3.7,2.4,4.9s3.6,1.7,6.1,1.7c2.2,0,4.1-0.5,5.5-1.5S106.2,121.6,106.2,119.9z"/>
	<path d="M125.9,113.4h-12.8v11.7h14.6v0.9h-15.6v-25.6h15.6v0.9h-14.6v11h12.8V113.4z"/>
	<path d="M142.4,115.1h-8.9v11h-0.9v-25.6h8.2c2.6,0,4.6,0.7,6.1,2s2.3,3.1,2.3,5.4c0,1.7-0.5,3.3-1.6,4.6s-2.5,2.1-4.1,2.4l6.8,11
		v0.2h-1L142.4,115.1z M133.5,114.2h8.1c2,0,3.6-0.6,4.8-1.8s1.8-2.7,1.8-4.5c0-2-0.7-3.6-2-4.7s-3.2-1.7-5.5-1.7h-7.1V114.2z"/>
	<path d="M162.6,123.6l0.5,1.5l0.5-1.5l8.6-23.1h1l-9.6,25.6h-1.2l-9.6-25.6h1L162.6,123.6z"/>
	<path d="M179,126.1h-0.9v-25.6h0.9V126.1z"/>
	<path d="M204.2,118.2c-0.2,2.6-1.2,4.7-2.7,6.1s-3.7,2.1-6.4,2.1c-1.8,0-3.4-0.5-4.8-1.4s-2.5-2.2-3.3-3.9s-1.2-3.6-1.2-5.8v-4
		c0-2.2,0.4-4.1,1.1-5.8s1.8-3,3.3-4s3-1.4,4.9-1.4c2.7,0,4.8,0.7,6.4,2.1s2.5,3.4,2.7,6h-0.9c-0.3-2.4-1.1-4.1-2.5-5.4
		s-3.3-1.8-5.7-1.8c-2.5,0-4.5,0.9-6,2.8s-2.3,4.4-2.3,7.5v3.8c0,2,0.3,3.8,1,5.4s1.7,2.8,2.9,3.6s2.7,1.3,4.4,1.3
		c2.4,0,4.4-0.6,5.7-1.8s2.2-3,2.4-5.4H204.2z"/>
	<path d="M223.9,113.4H211v11.7h14.6v0.9h-15.6v-25.6h15.6v0.9H211v11h12.8V113.4z"/>
	<path d="M245.9,119.9c0-1.1-0.3-2-0.8-2.8s-1.3-1.4-2.4-2s-2.8-1.2-5-1.8s-3.9-1.2-5-1.8s-1.9-1.3-2.4-2.2s-0.8-1.8-0.8-3
		c0-1.9,0.8-3.4,2.4-4.5s3.6-1.7,6.1-1.7c1.6,0,3.1,0.3,4.4,1s2.3,1.5,3,2.7s1.1,2.5,1.1,3.9h-0.9c0-1.9-0.7-3.5-2.1-4.7
		s-3.2-1.9-5.5-1.9c-2.2,0-4.1,0.5-5.5,1.5s-2.1,2.3-2.1,3.8c0,1.5,0.6,2.8,1.8,3.7s3.2,1.8,6,2.5s4.8,1.6,6.1,2.5
		c1.6,1.2,2.5,2.8,2.5,4.9c0,1.3-0.4,2.4-1.1,3.4s-1.8,1.8-3.1,2.3s-2.8,0.8-4.5,0.8c-1.9,0-3.5-0.3-5-0.9s-2.6-1.5-3.3-2.6
		s-1.1-2.5-1.1-4h0.9c0,2.1,0.8,3.7,2.4,4.9s3.6,1.7,6.1,1.7c2.2,0,4.1-0.5,5.5-1.5S245.9,121.6,245.9,119.9z"/>
</g>
</svg>
