<?xml version="1.0" encoding="utf-8"?>
<!-- Generator: Adobe Illustrator 19.0.0, SVG Export Plug-In . SVG Version: 6.00 Build 0)  -->
<svg version="1.1" id="Calque_1" xmlns:sketch="http://www.bohemiancoding.com/sketch/ns"
	 xmlns="http://www.w3.org/2000/svg" xmlns:xlink="http://www.w3.org/1999/xlink" x="0px" y="0px" viewBox="-277 386.1 41.9 55.5"
	 style="enable-background:new -277 386.1 41.9 55.5;" xml:space="preserve">
<g sketch:type="MSPage">
	<g transform="translate(-155.000000, -75.000000)" sketch:type="MSArtboardGroup">
		<g transform="translate(155.000000, 77.000000)" sketch:type="MSLayerGroup">
			<path sketch:type="MSShapeGroup" d="M-269.3,421.9l-4.8,10.7l7.4-1l4.2,6.2l5-11.3l-1.4,0.5c-0.9,0.3-2,0.1-2.7-0.5l-1.7-1.5
				c-0.3-0.2-0.8-0.5-1.2-0.5l-2.2-0.1c-0.9-0.1-1.9-0.7-2.3-1.5L-269.3,421.9z M-254.8,426.5l5,11.3l4.2-6.2l7.4,1l-4.8-10.7
				l-0.5,0.9c-0.4,0.8-1.4,1.5-2.3,1.5l-2.2,0.1c-0.3,0-0.9,0.3-1.2,0.5l-1.7,1.5c-0.7,0.6-1.8,0.8-2.7,0.5L-254.8,426.5z"/>
			<path d="M-236.2,409.2l-0.7-2.1c-0.2-0.5-0.2-1.4,0-1.9l0.7-2.1c0.2-0.5,0-1.3-0.3-1.7l-1.5-1.7c-0.4-0.4-0.7-1.2-0.7-1.8
				l-0.1-2.2c0-0.5-0.5-1.2-1-1.4l-2-1c-0.5-0.2-1.1-0.8-1.3-1.3l-1-2c-0.2-0.5-0.9-0.9-1.4-1l-2.2-0.1c-0.5,0-1.3-0.4-1.8-0.7
				l-1.7-1.5c-0.4-0.4-1.2-0.5-1.7-0.3l-2.1,0.7c-0.5,0.2-1.4,0.2-1.9,0l-2.1-0.7c-0.5-0.2-1.3,0-1.7,0.3l-1.7,1.5
				c-0.4,0.4-1.2,0.7-1.8,0.7l-2.2,0.1c-0.5,0-1.2,0.5-1.4,1l-1,2c-0.2,0.5-0.8,1.1-1.3,1.3l-2,1c-0.5,0.2-0.9,0.9-1,1.4l-0.1,2.2
				c0,0.5-0.4,1.3-0.7,1.8l-1.5,1.7c-0.4,0.4-0.5,1.2-0.3,1.7l0.7,2.1c0.2,0.5,0.2,1.4,0,1.9l-0.7,2.1c-0.2,0.5,0,1.3,0.3,1.7
				l1.5,1.7c0.4,0.4,0.7,1.2,0.7,1.8l0.1,2.2c0,0.5,0.5,1.2,1,1.4l2,1c0.5,0.2,1.1,0.8,1.3,1.3l1,2c0.2,0.5,0.9,0.9,1.4,1l2.2,0.1
				c0.5,0,1.3,0.4,1.8,0.7l1.7,1.5c0.4,0.4,1.2,0.5,1.7,0.3l2.1-0.7c0.5-0.2,1.4-0.2,1.9,0l2.1,0.7c0.5,0.2,1.3,0,1.7-0.3l1.7-1.5
				c0.4-0.4,1.2-0.7,1.8-0.7l2.2-0.1c0.5,0,1.2-0.5,1.4-1l1-2c0.2-0.5,0.8-1.1,1.3-1.3l2-1c0.5-0.2,0.9-0.9,1-1.4l0.1-2.2
				c0-0.5,0.4-1.3,0.7-1.8l1.5-1.7C-236.2,410.5-236,409.7-236.2,409.2z M-256.1,421.5c-8.5,0-15.5-6.8-15.5-15.2
				c0-8.4,6.9-15.2,15.5-15.2c8.5,0,15.5,6.8,15.5,15.2C-240.6,414.7-247.6,421.5-256.1,421.5z"/>
			<path sketch:type="MSShapeGroup" d="M-257.3,409.3l-5.7-5.7l-2.1,2.1l6.7,6.7l1.1,1.1l10.6-10.6l-2.1-2.1L-257.3,409.3z"/>
		</g>
	</g>
</g>
</svg>
