<?xml version="1.0" encoding="utf-8"?>
<!-- Generator: Adobe Illustrator 19.0.0, SVG Export Plug-In . SVG Version: 6.00 Build 0)  -->
<svg version="1.1" id="Calque_1" xmlns="http://www.w3.org/2000/svg" xmlns:xlink="http://www.w3.org/1999/xlink" x="0px" y="0px"
	 viewBox="-247 380 100 57.7" style="enable-background:new -247 380 100 57.7;" xml:space="preserve">
<path d="M-214.5,394c-1.8,0-3.2,1.5-3.2,3.2v11.7c0,0.1,0,0.1,0,0.2c0,0.1,0,0.2,0,0.4c0,0.1,0,0.2,0.1,0.3c0,0.1,0.1,0.2,0.1,0.3
	c0,0.1,0.1,0.2,0.1,0.3s0,0.1,0.1,0.2l5.8,10.1c0.6,1,1.7,1.6,2.8,1.6c0.5,0,1.1-0.1,1.6-0.4c1.6-0.9,2.1-2.9,1.2-4.4l-5.4-9.4
	v-10.9C-211.3,395.4-212.7,394-214.5,394z"/>
<path d="M-156.1,382.3h-58.4l0,0c-7.1,0-13.8,2.8-18.8,7.8s-7.8,11.7-7.8,18.8s2.8,13.8,7.8,18.8c5.2,5.2,12,7.8,18.8,7.8
	s13.6-2.6,18.8-7.8c1.2-1.2,2.3-2.5,3.2-3.9h7.2c1.8,0,3.2-1.5,3.2-3.2c0-1.8-1.5-3.2-3.2-3.2h-9h-0.1c-0.1,0-0.2,0-0.3,0
	s-0.2,0-0.4,0.1c-0.1,0-0.1,0-0.2,0.1c-0.1,0-0.3,0.1-0.4,0.1c-0.1,0-0.1,0.1-0.2,0.1c-0.1,0.1-0.2,0.1-0.3,0.2
	c-0.1,0-0.1,0.1-0.2,0.1c-0.1,0.1-0.2,0.2-0.3,0.3c0,0-0.1,0.1-0.1,0.2c-0.1,0.1-0.2,0.2-0.3,0.4c0,0,0,0,0,0.1
	c-0.9,1.5-2,2.9-3.2,4.2c-7.8,7.8-20.6,7.8-28.4,0c-3.8-3.8-5.9-8.8-5.9-14.2c0-5.4,2.1-10.4,5.9-14.2c3.8-3.8,8.8-5.9,14.2-5.9
	h58.4c1.8,0,3.2-1.5,3.2-3.2S-154.4,382.3-156.1,382.3z"/>
<path d="M-162,394h-23.3c-1.8,0-3.2,1.5-3.2,3.2c0,1.7,1.5,3.2,3.2,3.2h23.3c1.8,0,3.2-1.5,3.2-3.2C-158.8,395.5-160.2,394-162,394z
	"/>
<path d="M-173.7,405.7h-17.5c-1.8,0-3.2,1.5-3.2,3.2c0,1.8,1.5,3.2,3.2,3.2h17.5c1.8,0,3.2-1.5,3.2-3.2
	C-170.4,407.1-171.9,405.7-173.7,405.7z"/>
</svg>
