<?xml version="1.0" encoding="utf-8"?>
<!-- Generator: Adobe Illustrator 19.0.0, SVG Export Plug-In . SVG Version: 6.00 Build 0)  -->
<svg version="1.1" id="Calque_1" xmlns="http://www.w3.org/2000/svg" xmlns:xlink="http://www.w3.org/1999/xlink" x="0px" y="0px"
	 viewBox="-281 400.9 32 32" style="enable-background:new -281 400.9 32 32;" xml:space="preserve">
<g>
	<path d="M-254.3,428.9h-14c-0.6,0-1-0.4-1-1c0-0.6,0.4-1,1-1h14c0.1,0,0.2-0.1,0.2-0.2v-23.5c0-0.1-0.1-0.2-0.2-0.2h-14.5
		c-0.1,0-0.2,0.1-0.2,0.2v18.8c0,0.6-0.4,1-1,1s-1-0.4-1-1v-18.8c0-1.2,1-2.2,2.2-2.2h14.5c1.2,0,2.2,1,2.2,2.2v23.5
		C-252,427.9-253,428.9-254.3,428.9z M-262,426.9h-5l1-2l2-5l-2-2.1l0-14.9h4V426.9z M-269,429.9c-0.2,0-0.4-0.1-0.6-0.2
		c-0.4-0.3-0.5-1-0.2-1.4c0,0,3.1-4.2,4.7-7.1c0.2-0.4,0.2-0.8,0-1.2c-0.1-0.2-0.3-0.6-0.8-0.7c-0.3-0.1-0.5,0-1,0.5l-4.1,5
		c-0.3,0.4-1,0.5-1.4,0.2c-0.4-0.3-0.5-1-0.2-1.4l4.1-5.1l0.1-0.1c0.5-0.5,1.4-1.4,2.9-1.1c1,0.2,1.8,0.9,2.3,1.8
		c0.4,1,0.4,2.1-0.1,3c-1.6,3-4.7,7.1-4.8,7.3C-268.4,429.8-268.7,429.9-269,429.9z M-261.1,432.3l-1.8-0.9l2-4
		c0.2-0.5,0.8-0.7,1.3-0.5c0.5,0.2,0.7,0.8,0.5,1.3C-259.1,428.3-261.1,432.3-261.1,432.3z M-275,432.9c-0.4,0-0.9-0.3-1-0.8
		l-1.9-7.5c-0.1-0.4-0.1-0.8-0.1-1.2c0-1.2,0.4-2.4,1.2-3.3l6-6.9c0.4-0.4,1-0.5,1.4-0.1c0.4,0.4,0.5,1,0.1,1.4l-6,6.9
		c-0.5,0.5-0.7,1.3-0.7,2c0,0.2,0,0.5,0.1,0.7l1.9,7.5c0.1,0.5-0.2,1.1-0.7,1.2C-274.8,432.9-275,432.9-275,432.9z M-257,424.9
		c-0.6,0-1-0.4-1-1v-5c0-0.6,0.4-1,1-1s1,0.4,1,1v5C-256,424.4-256.4,424.9-257,424.9z"/>
</g>
</svg>
